<?xml version="1.0" encoding="utf-8"?>
<!-- Generator: Adobe Illustrator 21.0.0, SVG Export Plug-In . SVG Version: 6.00 Build 0)  -->
<svg version="1.1" id="Layer_1" xmlns="http://www.w3.org/2000/svg" xmlns:xlink="http://www.w3.org/1999/xlink" x="0px" y="0px"
	 viewBox="0 0 800 800" style="enable-background:new 0 0 800 800;" xml:space="preserve">
<style type="text/css">
	.st0{fill:#5DBA47;}
	.st1{fill:#F9D508;}
	.st2{fill:#5CBA47;}
	.st3{fill:#F9D507;}
	.st4{fill:#FFFFFF;}
	.st5{fill:#ED1B73;}
	.st6{fill:#CD2027;}
	.st7{fill:#9E237A;}
	.st8{fill:#E69C24;}
	.st9{fill:#007C67;}
	.st10{fill:#00B49F;}
	.st11{fill:#010101;}
	.st12{fill:#3A3A3A;}
	.st13{fill:#383938;}
	.st14{fill:#FEC249;}
	.st15{fill:#FEC247;}
	.st16{fill:#F8D40A;}
	.st17{fill:#5DB847;}
	.st18{fill:#EC2326;}
	.st19{fill:#CD2128;}
</style>
<g>
	<g>
		<g>
			<path class="st3" d="M447.2,599.3c-5.5,0.5-9.1-2.9-12.1-6.8c-8.9-11.5-16.8-23.8-26.7-34.6c-1.3-1.4-2.8-3.2-1.7-5.2
				c1.2-2.2,3.3-1.5,5.1-0.8c3.9,1.6,5.2-1.3,6.4-4c5.2-11.1,14.1-19.3,22.2-28.1c3.9-4.2,7.4-4.7,11.5-0.5
				c8.4,8.5,17.7,16.3,22.8,27.5c0.4,0.9,0.7,2.3,1.3,2.5c14.1,4.9,3.4,11,0.4,16c-5.4,9.2-11.4,18-17.3,27
				C456.5,596.9,452.8,599.8,447.2,599.3z"/>
			<path class="st3" d="M355.8,599.3c-6,0.3-9.8-3.3-12.8-7.6c-7.8-11.1-13.9-23.4-22.8-33.8c-1.2-1.4-2.7-4.5-0.9-5
				c12.9-3.6,14.4-17.1,22.3-25.1c13.2-13.5,14.3-14.1,26.9-0.4c6.2,6.6,12.5,13.2,16.8,21.3c0.7,1.4,2.1,3.4,3.1,3.4
				c12.7-0.1,5.1,6.1,2.5,9.2c-7.8,9.1-14.3,19.2-21.1,29.1C366.4,595.3,362.6,599.8,355.8,599.3z"/>
			<path class="st3" d="M442.7,611.1c-10.7,11.6-21.1,23.5-32.3,34.6c-5.8,5.8-13,5.5-19-0.9c-8.8-9.5-17.6-19-26.2-28.7
				c-2.4-2.8-6.3-6.7,2-6.9c3.1-0.1,3.9-3,5.1-5.3c5.9-10.7,14.9-18.7,23.2-27.4c2.9-3,5.6-3.9,9.3-1c9.2,7.3,18.3,14.8,24.2,25
				c3,5.2,4.5,11.2,13.9,7.3C442.8,609,442.8,610,442.7,611.1z"/>
			<path class="st3" d="M401.1,542.6c-4.5-0.1-8.1-1.9-10.9-5.4c-8.3-10.3-16.8-20.5-25-30.9c-2.9-3.6-6.4-8.1,2.5-8.7
				c2.5-0.2,3.9-2,5.1-4.1c0.8-1.4,1.7-2.8,2.8-3.9c24.4-25.1,27-26.8,52.2,0.7c3.1,3.3,4.1,8.8,10.7,8.3c3.9-0.3,2.2,3.2,0.9,4.8
				c-9.5,11.9-19,23.7-28.7,35.4C408.3,541.6,404.9,542.8,401.1,542.6z"/>
			<path class="st3" d="M488.5,574.8c3.7,0.1,5.5,3,7.6,5.4c8,8.8,10.9,21.2,19.8,29.5c2.2,2-0.1,4.2-1.4,6
				c-7.1,9.6-14.1,19.4-21.6,28.6c-6.4,7.7-14.5,7-19.9-1.5c-5.9-9.3-11.5-18.7-18.7-27.1c-2.7-3.2-4-6.4,2.2-7.1
				c3.8-0.4,5-3.6,6.9-6.2c5.8-7.7,11.9-15.3,17.9-22.9C483.2,577.1,485.5,575.4,488.5,574.8z"/>
			<path class="st3" d="M320.4,649.1c-3.4-0.1-6.3-1.6-8.6-4c-3.6-3.7-7.2-7.5-10.3-11.6c-16.8-22.2-16.8-22.6-0.7-45.1
				c12.8-17.8,12.7-17.7,27.2-1.7c4.6,5.1,8.5,10.6,12,16.4c1.3,2.1,2,5.6,4.9,5.6c10.2,0.3,6.1,4.7,2.4,8.4
				c-7.2,7.3-11.2,16.6-17.2,24.7C327.8,645.3,325.3,648.8,320.4,649.1z"/>
			<path class="st3" d="M487.9,542.5c-4.1-0.1-6.2-2.5-8.2-5.1c-8.3-10.8-16.7-21.5-25-32.3c-2.2-2.9-5.2-6.1,1.5-7.4
				c6.1-1.2,6.9-7.3,10-11.2c19.3-23.6,17-22,34.8-2.1c4.1,4.5,6.6,10.5,12.3,13.5c3.5,1.9,2.7,4.7,1.2,7.5
				c-5.2,9.7-10.3,19.5-15.6,29.2C496.6,539.2,492.8,542,487.9,542.5z"/>
			<path class="st3" d="M314.9,542.6c-3.5-0.1-6.3-1.6-8.1-4.6c-6.3-11-12.5-22-18.6-33c-0.9-1.7-2.2-4.2-0.3-5.3
				c9.4-5.4,12.3-16.3,20.3-23c10.3-8.7,13.3-9,21.9,1.7c3.5,4.3,6.5,8.9,9.7,13.4c1.1,1.6,2,4.1,3.5,4.5c14.8,4,4.2,9,0.7,13.7
				c-6.6,8.8-13.3,17.5-19.9,26.4C321.7,539.5,319.4,542.6,314.9,542.6z"/>
			<path class="st3" d="M257.8,557.1c5.1-13.9,10.4-27,20-37.9c3.4-3.9,6.4-2,8.5,1.5c4.8,8,9.5,16.2,14.2,24.3
				c1.8,3,1.1,7.6,7.1,7.5c3.5-0.1,1.6,3.6,0.6,5.3c-7.1,11.6-12.9,23.9-18.9,36.1c-2.8,5.8-8.3,8-12.5,3.1
				C266.9,585.5,262.5,571.1,257.8,557.1z"/>
			<path class="st3" d="M545.8,555.7c-5.4,14-9.5,28.5-18.3,40.7c-3.3,4.6-9.3,4.5-12.3-0.8c-7.3-12.6-13.8-25.6-20.6-38.6
				c-0.6-1.1-0.9-3.4-0.5-3.6c12-6.3,12.2-20.7,20.3-29.8c7.4-8.3,8.7-9.1,14.4,0.4C534.8,534.3,540.1,545,545.8,555.7z"/>
			<path class="st3" d="M396.1,455.5c-10.3,10.6-20.1,21.6-31,31.6c-7.7,7-13.7,5.8-19.6-2.5c-5.8-8.1-10.9-16.8-17.5-24.4
				c-1.4-1.6-3.4-4.3-0.2-5.6c10.6-4.3,15.9-14.8,25.1-20.9c6.7-4.4,11.8-4.4,17.2,0.8c4.5,4.2,9,8.4,13,13c3.2,3.8,5.8,8,12.7,5
				C395.9,453.5,396,454.5,396.1,455.5z"/>
			<path class="st3" d="M396.1,658c-8.2,9.2-15.1,16.9-21.9,24.7c-6.8,7.7-14.3,9.1-21.8,2.2c-9.3-8.4-17.6-18-26.9-27.7
				c9.4-0.7,10.1-9.7,15-15.1c18-20,15.2-18,32.1-3.7c4.2,3.6,8.6,7,11.2,11.9C386.2,654.9,389.8,657.6,396.1,658z"/>
			<path class="st3" d="M406,454.9c10.3,0.5,13.3-7.6,18.3-12.6c15.5-15.7,18.9-16,34.9-1c5.6,5.2,15.2,10,15.9,15.7
				c0.6,5.8-7.6,12.5-12,18.9c-0.6,0.8-1.1,1.6-1.6,2.4c-11.2,16.5-18.2,16.8-31.5,1.8C422.7,471.8,414.9,464.1,406,454.9z"/>
			<path class="st3" d="M407,656.1c6.6,2,9.4-2.1,12.9-6.1c5.5-6.4,11.8-12,17.7-18c5.8-5.9,10.6-5,16.4,0.7
				c7.8,7.6,11.7,18.4,21.4,24.3c2.2,1.4,0,3.5-1.3,4.8c-8.4,8.5-16.4,17.5-26.2,24.5c-4.7,3.3-9.5,3.7-14.4,0.4
				C428.5,683.2,410.7,663.1,407,656.1z"/>
			<path class="st3" d="M401,447.3c-4.9-0.1-8.6-2.8-11.8-6c-5.6-5.4-11.1-10.9-16.5-16.5c-3.4-3.5-3.6-6.4,1.3-9.1
				c3.6-2,6.7-5.1,10-7.6c19.4-15,19.8-10.7,37.7,1.7c3.6,2.5,5.3,7.5,10.5,8c2,0.2,2.9,2.1,1.5,3.5c-9.4,9.2-16.8,20.7-29.8,25.8
				C403,447.4,402,447.3,401,447.3z"/>
			<path class="st3" d="M436.4,696.5c-10.1,8.3-18.5,15.3-27,22.2c-4.9,4-10.3,3.7-15.4,0.5c-8.6-5.3-15.7-12.4-23.1-19.1
				c-1.5-1.4-4.1-3.6-0.3-5.2c8.1-3.4,12.2-11.4,18.9-16.4c11-8.2,14.7-8,25.3,0.8C421.4,684.8,425.3,693.4,436.4,696.5z"/>
			<path class="st3" d="M533.6,460.3c-2.7,8.2-4.7,16.7-8.3,24.7c-3.3,7.3-9.6,7.7-14.4,1.3c-6.4-8.6-13-17-20.6-24.5
				c-2.8-2.8-3.6-4.8-0.2-8.7c4.8-5.6,7.9-12.5,11.7-18.9c2.1-3.5,5-5.7,8.7-2.9c9.1,6.9,15.7,16.1,22.6,25.1
				C533.7,457.1,533.4,458.7,533.6,460.3z"/>
			<path class="st3" d="M295.3,430.4c5,0.6,6.1,4.9,8.8,7.5c4.9,4.8,2.4,14.4,11.4,16.8c2.3,0.6-0.1,3.3-1.2,4.7
				c-7.5,8.9-14.9,17.9-22.6,26.5c-6.7,7.5-10.8,6.8-15-2.2c-0.4-0.9-0.8-1.8-1.1-2.7c-8.8-22-4.3-35.9,15.9-48.6
				C292.7,431.6,294.2,431,295.3,430.4z"/>
			<path class="st3" d="M270.3,656.4c2.8-7.6,5.4-15.9,8.9-23.9c2-4.6,5.9-4.3,9.6-1.2c6.9,5.9,13.1,12.5,18.5,19.7
				c1.7,2.3,2.7,5.2,5.8,6.2c3.6,1.1,3.1,3.3,1.8,6c-3.3,6.6-6.5,13.3-9.7,20c-2.8,5.9-7.8,7.8-12.6,3.8c-8.6-7.3-15.5-16.4-21.4-26
				C270.5,660,270.6,658.5,270.3,656.4z"/>
			<path class="st3" d="M531.5,656.2c-0.1,8.2-16.6,29.7-24,32c-3.5,1.1-6.4,0.3-8.5-2.7c-0.9-1.3-1.8-2.8-2.1-4.3
				c-1.9-8.3-12.8-17.5-9-22.3c8-10,17-19.9,27.1-28.4c3.2-2.7,6.2-1.5,8.1,1.7C527.4,639.8,530.5,648,531.5,656.2z"/>
			<path class="st3" d="M262.6,470.3c3.6,0.2,3.9,2.6,4.8,4.7c3.5,7.9,4.1,17,10,24c2.1,2.4,0.4,5-0.9,7.2
				c-6.1,9.6-11,19.8-15.9,30.1c-1.2,2.5-2.4,5.8-6,5.4c-3.4-0.4-4.5-3.3-5.4-6.2c-3.6-12.2-5.1-24.7-6.7-37.3
				c-0.3-2.7,0.5-5.2,2.1-7.3c4.5-5.9,9.1-11.8,13.8-17.5C259.6,471.9,261.5,471.1,262.6,470.3z"/>
			<path class="st3" d="M443.5,419.2c7.2-2.6,10-8.2,13.9-12.8c7.3-8.7,12.5-9.5,21.6-3.2c5.8,4.1,11.3,8.5,17,12.9
				c1,0.8,2,1.7,2.5,2.9c1.3,3.2-8.5,23.1-13.1,26.3c-6.8,4.8-11.7-0.2-16.3-4C460.8,434.7,453,427.5,443.5,419.2z"/>
			<path class="st3" d="M559.2,609.6c-3,13.3-7.5,25.4-15.3,36c-4,5.5-8.3,3.5-10-2c-3-9.9-4.7-20.2-9.7-29.5
				c-0.5-1-0.7-3.2-0.1-3.6c10.4-7.5,11.7-20.5,18.6-30.1c1.5-2,2.4-5.3,5.5-4.8c2.9,0.4,3.7,3.6,4.3,6
				C554.9,591.1,557.1,600.5,559.2,609.6z"/>
			<path class="st3" d="M332.2,398.5c6.7,0.8,10.1,5.4,13.8,9.4c11.2,12.2,11.1,12.3-1.2,23.6c-5.2,4.8-10.4,9.7-16,14
				c-4.9,3.8-9.7,2.9-13.2-2.5c-1.4-2.2-3.1-4.2-4.2-6.5c-2.6-5.7-9.5-11.8-5.2-17.5C312.9,410.1,322.3,403.3,332.2,398.5z"/>
			<path class="st3" d="M467.4,721.5c-5.2-0.3-8.4-3.1-10.9-6.5c-4-5.5-10.1-10.9-10.8-16.9c-0.8-6.2,9-7.2,13-12
				c3.9-4.6,9.2-8.1,14.1-11.7c5.1-3.8,9.7-2.7,13.2,2.6c1.6,2.4,3.3,4.8,4.7,7.3c6.8,12.3,6.6,14.9-4.3,23.5
				C480.2,712.7,475.4,719.9,467.4,721.5z"/>
			<path class="st3" d="M358.9,697.3c-6.9,7.1-9.6,17.5-17.9,22.9c-5.7,3.7-10.9-1.8-15.8-4.7c-1.9-1.2-3.5-2.8-5.3-4.3
				c-16.7-13.4-17-17.3-3.3-34c4.3-5.3,8.2-5.8,14.1-2.1c9.3,5.9,15.3,16.1,26.2,19.8C357.6,695.1,358,696.2,358.9,697.3z"/>
			<path class="st3" d="M242.4,611.4c4.9-11,5.5-21.9,8.7-32.1c1.4-4.6,3.8-5.2,6.7-1.5c8,10.2,11.2,23.3,19.4,33.5
				c0.8,1-0.2,3.7-0.7,5.6c-2.5,8.7-5,17.4-7.6,26.1c-1.3,4.6-4.4,7.6-8.3,3.6C250.8,636.6,247.4,623.1,242.4,611.4z"/>
			<path class="st3" d="M559.5,503.9c-2.2,11.4-4.2,21.9-6.4,32.4c-0.5,2.6-2,4.9-5.1,5.1c-2.6,0.2-4.3-1.6-5.3-3.6
				c-5.7-11.3-11.3-22.6-17-33.9c-2.3-4.6,2.6-6,3.7-9.1c2.1-6.5,4-13,6.2-19.4c1.5-4.4,4.6-6,8-2.3
				C551.7,482.1,557.1,492.7,559.5,503.9z"/>
			<path class="st3" d="M366.4,412.2c-8.6,0.2-23.1-14.8-22.2-20.8c0.2-1.4,1.4-2.9,2.6-3.9c2.2-1.8,4.7-3.4,7.2-5
				c17.9-11.5,25.8-10.2,38.8,5.8c1.3,1.6,1.8,2.9,0.4,4.1C384.4,400.3,376.5,409.6,366.4,412.2z"/>
			<path class="st3" d="M431.9,375c10.9,1.7,18.1,9.1,26.1,15c0.4,0.3,0.7,1.3,0.6,1.8c-2.9,7.3-7,14.2-13,19
				c-4.6,3.7-10.8,2.2-15.5-1.3c-6.7-5-13.1-10.6-19.5-16c-1.8-1.5-4-4.5-1.8-5.6C416.7,383.8,422.5,375.7,431.9,375z"/>
			<path class="st3" d="M370.4,745.3c-8.3-2.7-16.3-9.1-23.6-16.4c-0.6-0.6-0.3-2.4-0.1-3.5c0.2-0.9,1-1.6,1.5-2.4
				c10.6-16.7,16.7-18,33-7.2c15.8,10.4,15.9,14.5,0.7,25.8C379.2,743.6,376.3,745.6,370.4,745.3z"/>
			<path class="st3" d="M429.5,745.5c-4.6,0-19.6-11.8-20.6-16.2c-0.3-1.4-0.1-2.5,0.9-3.5c7.3-6.9,15.3-12.9,24-17.8
				c4.5-2.5,8.1,0.2,11.3,3.1c14.2,12.6,14,16.6-1.1,27.4C439.7,741.6,435.4,745.3,429.5,745.5z"/>
			<path class="st3" d="M296.2,399.2c0-10.2,13.7-24,23.3-23.9c8,0.1,8.7,7.8,12,12.5c3,4.3-1.5,6.1-4.1,8.2
				c-4.5,3.7-9,7.4-13.5,11.1c-3.8,3.1-7.8,6.7-13,4.3C295.6,408.9,296.6,403.3,296.2,399.2z"/>
			<path class="st3" d="M507,398.7c-0.7,4.2,0,9.9-4.9,12.5c-5.2,2.7-9-1.6-12.8-4.5c-4.1-3.2-7.8-7.1-12.3-9.4
				c-11.1-5.6-5.9-12-1.4-18.3c5.1-7.2,11-3.9,15.9-0.1C498.3,383.9,507.7,387.2,507,398.7z"/>
			<path class="st3" d="M505.7,705.6c-1.4-6.9,1.2-11.4,6.2-15.5c5.5-4.5,10.3-9.8,15.5-14.7c1.4-1.3,3-2.8,5.1-1.6
				c1.6,0.9,1.3,2.7,1.4,4.4c1.2,15.4-2.7,28.5-16.2,37.5c-2.8,1.9-5.2,6-9.1,4.2c-3.2-1.5-2.2-5.8-2.9-8.8
				C505.4,709.1,505.7,707.1,505.7,705.6z"/>
			<path class="st3" d="M538.1,437.1c-0.3,1.9,1.4,7.4-3.7,8.9c-4.5,1.3-7.5-3-10.3-6.1c-3-3.4-5.4-7.5-8.9-10.2
				c-8.3-6.4-9-13.5-5.4-23c2.6-6.8,4.7-8.1,9.5-2.7C527.4,413.1,539.7,419.9,538.1,437.1z"/>
			<path class="st3" d="M334.6,730.9c-1.1,14-7,16.7-18.9,8.7c-15.8-10.7-17.7-14.2-14.6-24.8c1.9-6.4,5.6-7.8,10.9-4.4
				c6.8,4.4,13.3,9.2,20,13.9C334.3,725.9,335.4,728,334.6,730.9z"/>
			<path class="st3" d="M269,688c0-2.3-0.1-4.5,0-6.8c0.1-2.3,0.2-4.9,2.7-5.8c2.5-0.9,4.1,1.3,5.8,2.8c6.3,5.6,11.4,12.4,18.6,17
				c3.3,2.1,0.6,22.9-2.8,24.5c-1,0.5-2.5,0.3-3.6-0.2C281,716.2,268.8,697.6,269,688z"/>
			<path class="st3" d="M501.8,723.9c0.7,3.8-1.5,6.1-4.3,8.1c-3.7,2.6-7.4,5.3-11.2,7.8c-12.6,8-16.7,6-18.9-9
				c-0.3-2.1-0.2-3.6,1.7-5c6.2-4.6,12.2-9.6,18.6-14c9-6.2,12.3-4.6,13.6,6.4C501.5,720,501.6,721.9,501.8,723.9z"/>
			<path class="st3" d="M562.8,599.1c-4.6-11.9-4.3-23-8-32.7c-4-10.5,0.3-19.5,2.1-29c0.4-2.2,0.8-5,3.6-5.1c2.7-0.1,3.1,2.9,4,4.9
				C573.4,557.9,573.2,574.3,562.8,599.1z"/>
			<path class="st3" d="M264.9,433.4c-0.1-9.6,11.4-26.4,20.1-29.7c3.1-1.2,5-0.4,6.2,2.5c3.1,6.8,5,13.4-1.2,19.8
				c-4.9,5.1-9.5,10.7-14.4,15.8c-2.1,2.2-4.2,5.9-8,4.2c-3.6-1.6-2.6-5.5-2.8-8.7C264.9,436,264.9,434.7,264.9,433.4z"/>
			<path class="st3" d="M243.4,533.9c12.1,21.8,3.8,42.7-1,65.6C228.5,576.1,231.4,554.9,243.4,533.9z"/>
			<path class="st3" d="M398.3,759c-4.7-0.8-12.9-0.1-16.8-8c-1.5-3,12.3-15,17.9-16.2c5-1,20.6,9.1,21.7,14.1
				c0.8,3.8-2.1,5-4.5,6.5C411.7,758.5,406.3,759.4,398.3,759z"/>
			<path class="st3" d="M558.5,631.6c-2.3,16.1,4.5,33.7-8.5,47.7c-2.7,2.9-5,8.3-9.7,6c-4-1.9-1.7-6.9-1.8-10.7
				C538.1,657.3,549.8,645.3,558.5,631.6z"/>
			<path class="st3" d="M246.5,631.8c9,16.9,22.8,31.5,15.9,52.6C247.2,676.6,238.7,649.8,246.5,631.8z"/>
			<path class="st3" d="M359.5,755.3c-6.1-0.2-11.3-2-16.5-3.8c-6-2.1-7-6.3-4.4-11.5c2.6-5.2,6.3-7.2,11.7-3.1
				c4.1,3.1,8.5,5.9,12.4,9.2c2.2,1.9,7.3,2.6,5.8,6.5C367,756.5,362.3,755,359.5,755.3z"/>
			<path class="st3" d="M442.9,755.3c-2.8-0.3-6.4,1.2-7.9-2c-1.8-3.9,2-5.8,4.4-7.6c4.4-3.2,9.1-6,13.8-8.9c5.4-3.3,9-1.4,11.5,4
				c2.6,5.6-0.1,8.5-4.9,10.5C454.4,753.6,448.8,755.1,442.9,755.3z"/>
		</g>
		<g>
			<path class="st2" d="M382.4,268.5c-17.3-11.2-36.8-21.7-53.7-35.3c-23.2-18.7-44.5-39.7-66.6-59.8c-8.1-7.4-15.6-15.5-24.2-22.2
				c-7.6-5.9-16.3-10.4-24.9-15.8c11.7-2.3,23.3-1.4,33.6,4c26.1,13.7,52.5,27,77.2,43c24.5,15.8,47.1,34.4,70.2,52.3
				c5.4,4.2,9.5,10.1,13.7,15.6c3.4,4.4,1.9,8.4-3,10.4C397.6,263.5,390.1,265.8,382.4,268.5z"/>
			<path class="st2" d="M340.2,355.8c-10.9-1.1-20.1-2.4-29.3-2.8c-9.6-0.5-19.2-0.1-29.1-1.1c9.4-8.5,21.2-11.3,33-11.2
				c21.5,0.2,43,2.4,64.5,3.1c3.8,0.1,8.2-1.6,11.6-3.7c12.1-7.2,23.9-14.9,38.5-24.1c1.1,8.4,2.1,13.7,2.5,19
				c0.4,6.4,1.8,8.3,9.6,7.9c23.3-1.3,46.7-0.5,70.1,0.4c-14.6,7.1-32.7,4.2-46.4,17.3c12.4,4.1,8.8,11.3,4.2,17.4
				c-5.1,6.9-10.7,2.1-15.4-1.5c-16.2-12.1-25.1-12.2-41.8,0.4c-6,4.5-12.5,6.4-18.1,0.9c-15-14.8-29.4-13.7-44.8-0.8
				c-3.1,2.5-9.1,4-12.5,2.8c-2.7-1-4.8-7.1-4.7-10.8C332.1,365.7,335.7,362.6,340.2,355.8z"/>
			<path class="st2" d="M587,160.8c-11.4,10.9-23.7,21.1-34.1,32.9c-26.4,29.9-59.9,49-95.3,65.6c-9.6,4.5-18.8,9.8-27.8,15.5
				c-5,3.1-9.8,4.6-12.6-1c-1.8-3.6-2.7-10.1-0.7-13c17.6-25.8,39.8-46.8,67.6-61.9c32.2-17.5,66.3-30,101.2-40.3
				C585.8,159.3,586.4,160.1,587,160.8z"/>
			<path class="st2" d="M415.6,247.5c-10-12.4-10.4-26.1-4.5-38.7c12.8-26.9,28.4-51.8,57.7-64.3c16.1-6.9,31.9-14.6,48-21.6
				c3.8-1.7,8.2-2,13.5-1.2c-6.7,7.8-14.3,15.1-20,23.6c-7.4,11.2-13.2,23.5-20,35.2c-2.4,4.1-5,9-8.8,11.3
				c-24,14.1-46.4,29.8-62.1,53.4C418.9,245.9,417.8,246.2,415.6,247.5z"/>
			<path class="st2" d="M400.2,230.5c-18.6-14.8-36.7-27.3-52.5-42.3c-8-7.7-10.8-20.5-17.5-29.9c-11.8-16.5-24.8-32.1-37.3-48
				c-1.9-2.5-3.7-5-7.3-10c5.7,1.9,8.6,2.4,11.1,3.7c33.7,17.6,66.3,36.7,92.7,64.8c3.2,3.4,5.9,7.2,9.1,10.5
				c8.5,8.6,11.5,17.5,5.5,29.3C401.3,214.1,401.7,221.3,400.2,230.5z"/>
			<path class="st2" d="M414,186.3c-10.1-11.5-20-22.2-29.1-33.5c-1.6-2-0.6-7,0.6-10.1c11.3-27.7,22.9-55.2,34.3-82.8
				c2.6-6.2,4.8-12.6,7.1-19c1.1,0.1,2.2,0.2,3.3,0.2c0.8,5.6,1.9,11.1,2.4,16.7c2.5,29.4,5.1,58.9,6.8,88.4
				c0.3,4.9-2.7,10.6-5.7,14.9C428,169.6,421.2,177.3,414,186.3z"/>
			<path class="st2" d="M214.5,225.9c2.8-1.2,5.5-3.3,8.3-3.3c52.6-0.8,101.6,10.1,143.7,43.8c8.1,6.5,11.7,12.9,5.2,22.7
				c-2.8,4.3-3.9,9.7-6.5,16.7c-8.6-5.1-18.4-8.2-24.4-14.8c-18.1-19.8-40.8-32.7-63.9-45c-19.1-10.1-38.9-18.9-61.6-17
				C214.9,227.9,214.7,226.9,214.5,225.9z"/>
			<path class="st2" d="M587,236.1c-5.1,1.9-10.1,4.2-15.4,5.6c-31,8.5-59.9,21.3-85.8,40.6c-2.1,1.6-4.6,3-7.1,3.5
				c-17.6,3.9-35,8-47.9,22.2c-8.1-14.2-7.4-22.3,4.7-28.8c33.8-18.3,66.9-38.7,104.9-47.2c12.1-2.7,25.1-1.8,37.7-2
				c2.9-0.1,5.9,1.9,8.9,2.9C587,234,587,235.1,587,236.1z"/>
			<path class="st2" d="M527.6,284.5C510.4,300,494,315,477.2,329.7c-2.4,2.1-6.6,2.6-10.1,3c-4.2,0.6-8.6,0.6-12.9,0.5
				c-5-0.2-11.3,6-14.6-2.2c-4.8-11.9-3.5-20.6,5.1-25.6c7.9-4.5,16.6-8,25.5-10.1c16-3.9,32.3-6.6,48.5-9.7
				C521.7,285,524.7,284.8,527.6,284.5z"/>
			<path class="st2" d="M382.7,336.5c-20.5-7.1-43.4,1-63.3-12c-8.2-5.4-19.3-6.5-29.1-9.5c-3.3-1-6.6-1.9-11.2-3.2
				C321.6,290.4,365.2,300.7,382.7,336.5z"/>
			<path class="st2" d="M422,306.3c-3.3,3.9-6.4,7.9-9.8,11.6c-1.3,1.4-3.3,2.2-5,3.2c-14.9,8.4-14.9,8.4-25-1.8
				c-10-10.2-11.2-17.2-3.5-29.1c4.5-6.9,10-13.2,15.8-19.1c1.5-1.6,6.8-2.1,8.2-0.9C412.4,279.6,420.5,290.1,422,306.3z"/>
			<path class="st2" d="M450.2,146.5c-9.1-21.9,2.6-45.5,29.2-56.8c-3,15.7-4,30.6-9.1,43.9C468.1,139.4,457.7,142.1,450.2,146.5z"
				/>
			<path class="st2" d="M377.8,144c-2.6-0.7-3-0.7-3.3-0.8c-14.7-6.8-22.5-17.2-19.5-34.3c1.1-6.4,0.2-13.2,0.2-22.4
				c13.8,9.8,22.2,21.8,27.1,34.8C384.6,127.4,379.5,136.4,377.8,144z"/>
		</g>
	</g>
	<g>
		<path d="M238.4,458.7c4-0.2,7.4-0.4,10.8-0.6c14.2-0.8,28.5-1.5,42.7-2.3c13.2-0.8,26.3,0.2,39.4,2.3c8.8,1.4,17.5,3.3,25.8,6.7
			c9.7,4,19.8,6.5,30.3,7.6c10,1.1,20,0.6,29.9-1.2c7.3-1.3,14.4-3.7,21.4-6.3c5.5-2.1,11.2-3.6,17-5c13.7-3.2,27.6-4.5,41.6-4.4
			c7.8,0.1,15.6,0.7,23.4,1.1c6.1,0.3,12.2,0.7,18.4,1c5.8,0.3,11.5,0.6,17.3,0.9c0.2,0,0.5,0.1,1,0.1c0,3.6,0,7.2,0,10.9
			c0,3.4,0.1,6.7,0,10.1c0,0.5-0.2,1.2-0.6,1.3c-5.2,2.4-7.1,6.7-7.6,12.1c-0.5,5.6-1.1,11.3-2,16.9c-0.9,5.8-2.1,11.5-3.4,17.2
			c-1.4,5.9-3.3,11.7-5.9,17.2c-1.9,4-5,6.8-8.4,9.3c-6,4.4-12.7,7.6-19.9,9.5c-5.1,1.3-10.4,2.2-15.6,2.9
			c-7.9,1.1-15.8,0.5-23.7-0.5c-7.1-1-14.2-2.2-21-4.7c-6.6-2.4-12-6.7-16.9-11.6c-9.1-9.2-15-20.2-19.2-32.3
			c-1.6-4.6-2.7-9.4-3.9-14.1c-1.4-5.7-7.7-10.1-13.1-9.1c-4.2,0.8-8.9,5-9.8,9.9c-1.7,9.5-5.1,18.3-9.5,26.8
			c-4.3,8.3-9.7,15.8-16.8,22c-5.9,5.1-12.4,8.7-20.1,10.5c-10.9,2.5-22,4.1-33.2,3.6c-12-0.5-23.6-3.1-34.2-8.9
			c-4.6-2.5-9.3-5.2-12.3-9.6c-2.3-3.4-4-7.3-5.4-11.2c-3-8.2-4.7-16.7-6-25.3c-1-6.7-1.7-13.5-2.5-20.2c-0.6-4.6-2.8-8.1-7.1-10.1
			c-0.4-0.2-0.8-0.8-0.8-1.2C238.4,472.9,238.4,465.9,238.4,458.7z M485.1,556.2c0-0.2,0-0.3,0.1-0.5c-3.3-0.8-6.8-1.5-10-2.6
			c-4.8-1.6-9.1-4.2-13.3-7.1c-8.3-5.9-13.6-13.9-17.1-23.3c-2.4-6.5-4.2-13.2-5.4-20.1c-0.6-3.5-0.8-7-0.1-10.5
			c1-4.9,3.8-8.3,8.4-10.2c5-2.1,10-4,15.1-5.9c6.1-2.3,12.3-3.9,18.7-4.9c2.7-0.4,5.4-0.7,8.2-1.1c-0.1,0-0.2-0.1-0.3-0.1
			c-0.3,0-0.6,0-0.9,0c-11.7-0.4-23.1,1.3-34.2,5c-6.9,2.3-13.8,4.4-20.2,7.9c-2.3,1.3-4.2,2.9-5.3,5.3c-2,4.3-2.3,8.8-1.5,13.4
			c1.7,10.3,4.5,20.3,9.4,29.6c4.4,8.3,11.2,14.2,19.2,18.7c5,2.8,10.3,4.6,16,5.4C476.3,555.8,480.7,555.9,485.1,556.2z
			 M314.3,470.1c0,0,0-0.1,0-0.1c-0.4,0-0.8-0.1-1.2-0.1c-7.6,0.5-15.3,0.7-22.9,1.6c-6.4,0.7-12.6,2.6-17.6,7
			c-2.8,2.5-5.5,5.3-6.5,9.1c-1.3,4.8-2.4,9.6-3,14.5c-1.2,9.9-0.8,19.8,2.7,29.3c2,5.6,5.1,10.5,9.9,14.3c3.9,3.1,8.4,4.7,13,6.2
			c8.8,2.9,17.8,4.4,27.1,4.2c0.4,0,0.8-0.1,1.2-0.1c-6.8-1.3-13.4-2.9-19.9-5.2c-6.5-2.3-11.9-6.1-15.7-12c-4.3-6.7-6-14.2-6.7-22
			c-0.7-9.1,0.4-18.1,2.7-27c1.6-6,5.3-10.3,10.4-13.5c5.4-3.3,11.5-4.4,17.6-5.3C308.3,470.4,311.3,470.3,314.3,470.1z"/>
		<path class="st4" d="M485.1,556.2c-4.4-0.3-8.8-0.4-13.2-1c-5.7-0.7-11-2.5-16-5.4c-8-4.6-14.8-10.4-19.2-18.7
			c-4.9-9.3-7.7-19.3-9.4-29.6c-0.8-4.7-0.5-9.1,1.5-13.4c1.1-2.4,3.1-4,5.3-5.3c6.4-3.6,13.3-5.7,20.2-7.9
			c11.1-3.7,22.5-5.4,34.2-5c0.3,0,0.6,0,0.9,0c0.1,0,0.2,0.1,0.3,0.1c-2.7,0.4-5.5,0.7-8.2,1.1c-6.4,1-12.7,2.6-18.7,4.9
			c-5,1.9-10.1,3.8-15.1,5.9c-4.5,1.9-7.4,5.3-8.4,10.2c-0.7,3.5-0.6,7,0.1,10.5c1.2,6.8,3,13.5,5.4,20.1
			c3.5,9.4,8.8,17.4,17.1,23.3c4.1,2.9,8.5,5.5,13.3,7.1c3.3,1.1,6.7,1.7,10,2.6C485.1,555.9,485.1,556.1,485.1,556.2z"/>
		<path class="st4" d="M314.3,470.1c-3,0.2-6,0.3-8.9,0.8c-6.1,0.9-12.2,1.9-17.6,5.3c-5.2,3.2-8.8,7.5-10.4,13.5
			c-2.3,8.9-3.4,17.8-2.7,27c0.6,7.8,2.4,15.3,6.7,22c3.8,5.9,9.1,9.7,15.7,12c6.5,2.3,13.1,3.9,19.9,5.2c-0.4,0-0.8,0.1-1.2,0.1
			c-9.3,0.2-18.3-1.3-27.1-4.2c-4.6-1.5-9.1-3.1-13-6.2c-4.7-3.8-7.8-8.7-9.9-14.3c-3.5-9.5-3.9-19.4-2.7-29.3
			c0.6-4.9,1.7-9.7,3-14.5c1-3.7,3.7-6.5,6.5-9.1c5-4.4,11.2-6.3,17.6-7c7.6-0.8,15.3-1.1,22.9-1.6c0.4,0,0.8,0,1.2,0.1
			C314.3,470,314.3,470.1,314.3,470.1z"/>
	</g>
</g>
</svg>
